<svg width="64" height="24" viewBox="0 0 64 24" fill="none" xmlns="http://www.w3.org/2000/svg">
<path d="M32.7151 17.6569L33.4639 17.6145L33.4639 17.6141L32.7151 17.6569ZM34.7989 19.7921L34.8928 19.048L34.8915 19.0479L34.7989 19.7921ZM41.4162 19.7921L41.3235 19.0479L41.3223 19.048L41.4162 19.7921ZM43.5 17.6569L42.7512 17.6141L42.7512 17.6145L43.5 17.6569ZM43.4027 8.70111L42.6545 8.75455L42.655 8.76024L43.4027 8.70111ZM43.0689 7.88742L43.6408 7.40225L43.6387 7.3997L43.0689 7.88742ZM33.1467 7.88794L32.5767 7.40053L32.5748 7.40277L33.1467 7.88794ZM32.813 8.70163L33.5606 8.76081L33.5611 8.75507L32.813 8.70163ZM37.2601 6.79902L37.783 7.33664C37.8537 7.26793 37.9538 7.22577 38.0624 7.22577V6.47577V5.72577C37.5691 5.72577 37.0921 5.91617 36.7371 6.26141L37.2601 6.79902ZM38.0624 6.47577V7.22577C38.171 7.22577 38.2711 7.26793 38.3417 7.33664L38.8647 6.79902L39.3876 6.26141C39.0327 5.91617 38.5556 5.72577 38.0624 5.72577V6.47577ZM38.8647 6.79902L38.3417 7.33664C38.4117 7.40466 38.447 7.49243 38.447 7.57942H39.197H39.947C39.947 7.081 39.7433 6.60734 39.3876 6.26141L38.8647 6.79902ZM39.197 7.57942H38.447C38.447 7.66642 38.4117 7.75418 38.3417 7.8222L38.8647 8.35982L39.3876 8.89743C39.7433 8.5515 39.947 8.07784 39.947 7.57942H39.197ZM38.8647 8.35982L38.3417 7.8222C38.2674 7.89455 38.1929 7.97813 38.1433 8.03284C38.0854 8.09672 38.044 8.14106 38.0063 8.17645C37.968 8.21227 37.9546 8.21847 37.9626 8.21409C37.9742 8.20773 38.0263 8.18224 38.1075 8.18224V8.93224V9.68224C38.561 9.68224 38.8808 9.41264 39.0321 9.27084C39.1194 9.18899 39.1976 9.10316 39.2546 9.04031C39.3199 8.96829 39.3556 8.92857 39.3876 8.89743L38.8647 8.35982ZM38.1075 8.93224V8.18224C38.182 8.18224 38.2193 8.20384 38.2067 8.19772C38.1956 8.19233 38.1662 8.1752 38.1171 8.13628C38.0086 8.0501 37.9173 7.95281 37.783 7.8222L37.2601 8.35982L36.7371 8.89743C36.8157 8.9738 36.9976 9.16272 37.1844 9.31101C37.3505 9.44292 37.6842 9.68224 38.1075 9.68224V8.93224ZM37.2601 8.35982L37.783 7.8222C37.7131 7.75418 37.6778 7.66641 37.6778 7.57942H36.9278H36.1778C36.1778 8.07784 36.3815 8.55151 36.7371 8.89743L37.2601 8.35982ZM36.9278 7.57942H37.6778C37.6778 7.49243 37.7131 7.40466 37.783 7.33664L37.2601 6.79902L36.7371 6.26141C36.3815 6.60734 36.1778 7.081 36.1778 7.57942H36.9278ZM32.7151 17.6569L31.9663 17.6994C32.0512 19.1982 33.2516 20.3553 34.7063 20.5364L34.7989 19.7921L34.8915 19.0479C34.0891 18.948 33.5041 18.3247 33.4639 17.6145L32.7151 17.6569ZM34.7989 19.7921L34.705 20.5362C36.9639 20.8213 39.2512 20.8213 41.5101 20.5362L41.4162 19.7921L41.3223 19.048C39.1881 19.3173 37.027 19.3173 34.8928 19.048L34.7989 19.7921ZM41.4162 19.7921L41.5088 20.5364C42.9635 20.3553 44.1639 19.1982 44.2488 17.6994L43.5 17.6569L42.7512 17.6145C42.711 18.3247 42.126 18.948 41.3235 19.0479L41.4162 19.7921ZM43.5 17.6569L44.2488 17.6998C44.4216 14.6817 44.3887 11.6558 44.1503 8.64198L43.4027 8.70111L42.655 8.76024C42.888 11.7062 42.9201 14.664 42.7512 17.6141L43.5 17.6569ZM43.4027 8.70111L44.1508 8.64768C44.1179 8.18833 43.9384 7.75306 43.6408 7.40225L43.0689 7.88742L42.497 8.37259C42.5909 8.48328 42.6447 8.617 42.6546 8.75455L43.4027 8.70111ZM43.0689 7.88742L43.6387 7.3997C43.1943 6.88058 42.3045 5.87948 41.3245 5.00229C40.8354 4.56447 40.3058 4.14121 39.7841 3.82331C39.2829 3.51794 38.6936 3.2498 38.1073 3.25L38.1075 4L38.1078 4.75C38.2727 4.74994 38.5701 4.84013 39.0036 5.10427C39.4166 5.35588 39.8698 5.71332 40.3241 6.11995C41.2309 6.93166 42.0706 7.87453 42.4991 8.37514L43.0689 7.88742ZM38.1075 4L38.1073 3.25C37.5212 3.2502 36.9321 3.51837 36.431 3.8238C35.9092 4.14173 35.3798 4.56495 34.8906 5.00274C33.9107 5.87988 33.021 6.88086 32.5767 7.40053L33.1467 7.88794L33.7167 8.37534C34.1448 7.87478 34.9843 6.93205 35.8911 6.12041C36.3453 5.71381 36.7986 5.35637 37.2116 5.10468C37.6451 4.84048 37.9427 4.75006 38.1078 4.75L38.1075 4ZM33.1467 7.88794L32.5748 7.40277C32.2772 7.75358 32.0977 8.18885 32.0649 8.6482L32.813 8.70163L33.5611 8.75507C33.5709 8.61752 33.6248 8.4838 33.7187 8.37311L33.1467 7.88794ZM32.813 8.70163L32.0653 8.64246C31.8268 11.6561 31.7937 14.6818 31.9663 17.6998L32.7151 17.6569L33.4639 17.6141C33.2952 14.6642 33.3275 11.7066 33.5606 8.7608L32.813 8.70163Z" fill="#4E618D"/>
<path d="M12.9398 8.24504C12.4544 7.71567 11.6578 6.65693 10.1619 6.72201C9.60479 6.7602 9.06123 6.90745 8.56353 7.15501C6.38628 8.1737 6.30815 11.9594 9.44468 12.291C11.1314 12.47 11.9985 12.1834 13.0026 13.2747C13.7095 14.0405 13.7569 15.5185 13.0884 16.7525C12.5082 17.825 11.2403 18.3956 10.0005 18.328C8.48541 18.2467 7.80533 17.4395 7.47106 17.1254M10.1645 6.72201L10.1619 5M10.1619 18.3656V20" stroke="#4E618D" stroke-width="2" stroke-linecap="round" stroke-linejoin="round"/>
<path d="M19.1953 18.1328C18.5781 18.1328 18.1797 17.7734 18.1797 17.2031C18.1797 17.0469 18.2188 16.8281 18.3125 16.5859L21.5859 7.6875C21.8594 6.9375 22.3125 6.59375 23.0469 6.59375C23.7891 6.59375 24.2422 6.92188 24.5234 7.67969L27.8047 16.5859C27.8984 16.8438 27.9375 17.0234 27.9375 17.2031C27.9375 17.75 27.5156 18.1328 26.9297 18.1328C26.3828 18.1328 26.0781 17.8828 25.8984 17.2812L25.1562 15.125H20.9453L20.2031 17.2656C20.0156 17.875 19.7188 18.1328 19.1953 18.1328ZM21.4219 13.5312H24.6641L23.0625 8.71875H23.0078L21.4219 13.5312Z" fill="#4E618D"/>
<path d="M49.5625 18C48.9375 18 48.5547 17.6094 48.5547 16.9531V7.64062C48.5547 6.97656 48.9375 6.59375 49.5625 6.59375C50.1953 6.59375 50.5703 6.97656 50.5703 7.64062V16.2969H54.8906C55.4375 16.2969 55.8125 16.625 55.8125 17.1484C55.8125 17.6719 55.4453 18 54.8906 18H49.5625Z" fill="#4E618D"/>
<rect x="37" y="11" width="2" height="7" rx="1" fill="#4E618D"/>
</svg>
